<svg xmlns="http://www.w3.org/2000/svg" style="background-color: rgb(255, 255, 255);" width="668px" height="176px" xmlns:xlink="http://www.w3.org/1999/xlink" version="1.1"><defs/><g transform="translate(0.5,0.5)"><rect x="2" y="3" width="664" height="171" fill="none" stroke="none" pointer-events="none"/><rect x="170" y="3" width="496" height="165" fill="none" stroke="none" pointer-events="none"/><path d="M 490 134 L 336 134" fill="none" stroke="#000000" stroke-miterlimit="10" pointer-events="none"/><path d="M 331 134 L 338 130 L 336 134 L 338 137 Z" fill="#000000" stroke="#000000" stroke-miterlimit="10" pointer-events="none"/><path d="M 330 108 L 474 108" fill="none" stroke="#000000" stroke-miterlimit="10" pointer-events="none"/><path d="M 479 108 L 472 111 L 474 108 L 472 104 Z" fill="#000000" stroke="#000000" stroke-miterlimit="10" pointer-events="none"/><path d="M 537 62 C 512 55 498 73 500 90 C 500 91 500 91 500 91 C 480 96 485 131 495 131 C 496 131 496 131 496 131 C 493 147 517 163 530 155 C 531 153 531 153 531 153 C 535 168 552 170 568 171 C 583 172 591 170 597 161 C 598 161 598 161 598 161 C 621 164 631 141 626 125 C 627 124 627 124 627 124 C 635 122 636 96 623 92 C 623 90 623 90 623 90 C 629 73 615 58 596 60 C 595 60 595 60 595 60 C 581 42 543 45 538 62 Z" fill="#6dbaff" stroke="#ffffff" stroke-width="2" stroke-miterlimit="10" pointer-events="none"/><g text-anchor="middle" font-size="12px"><text x="558" y="111" fill="#FFFFFF" font-family="Helvetica">World wide web</text></g><rect x="388" y="52" width="30" height="20" fill="none" stroke="none" pointer-events="none"/><g text-anchor="middle" font-size="12px"><text x="403" y="65" fill="#000000" font-family="Helvetica">modified delivery</text><text x="403" y="79" fill="#000000" font-family="Helvetica"> context</text></g><rect x="364" y="89" width="30" height="20" fill="none" stroke="none" pointer-events="none"/><g font-size="12px"><text x="366" y="102" fill="#000000" font-family="Helvetica">HTTP Request</text></g><rect x="349" y="133" width="30" height="20" fill="none" stroke="none" pointer-events="none"/><g font-size="12px"><text x="351" y="146" fill="#000000" font-family="Helvetica">HTTP Response</text></g><path d="M 308 134 L 154 134" fill="none" stroke="#000000" stroke-miterlimit="10" pointer-events="none"/><path d="M 149 134 L 156 130 L 154 134 L 156 137 Z" fill="#000000" stroke="#000000" stroke-miterlimit="10" pointer-events="none"/><path d="M 119 108 L 263 108" fill="none" stroke="#000000" stroke-miterlimit="10" pointer-events="none"/><path d="M 268 108 L 261 112 L 263 108 L 261 105 Z" fill="#000000" stroke="#000000" stroke-miterlimit="10" pointer-events="none"/><path d="M 59 64 C 34 57 20 76 22 93 C 22 93 22 93 22 93 C 2 98 7 133 17 133 C 18 133 18 133 18 133 C 15 149 39 165 52 157 C 53 156 53 156 53 156 C 57 171 74 173 90 173 C 105 174 113 173 119 163 C 120 163 120 163 120 163 C 143 166 153 143 148 127 C 149 126 149 126 149 126 C 157 124 158 98 145 94 C 145 93 145 93 145 93 C 151 76 137 60 118 63 C 117 62 117 62 117 62 C 103 44 65 47 60 65 Z" fill="#6dbaff" stroke="#ffffff" stroke-width="2" stroke-miterlimit="10" pointer-events="none"/><g text-anchor="middle" font-size="12px"><text x="80" y="113" fill="#FFFFFF" font-family="Helvetica">World wide web</text></g><rect x="258" y="94" width="80" height="58" fill="#ededed" stroke="#b8b8b8" stroke-dasharray="3 3" pointer-events="none"/><rect x="183" y="52" width="30" height="20" fill="none" stroke="none" pointer-events="none"/><g text-anchor="middle" font-size="12px"><text x="198" y="65" fill="#000000" font-family="Helvetica">delivery</text><text x="198" y="79" fill="#000000" font-family="Helvetica"> context</text></g><rect x="162" y="92" width="30" height="20" fill="none" stroke="none" pointer-events="none"/><g font-size="12px"><text x="164" y="105" fill="#000000" font-family="Helvetica">HTTP Request</text></g><rect x="165" y="134" width="30" height="20" fill="none" stroke="none" pointer-events="none"/><g font-size="12px"><text x="167" y="147" fill="#000000" font-family="Helvetica">HTTP Response</text></g><rect x="283" y="109" width="30" height="20" fill="none" stroke="none" pointer-events="none"/><g text-anchor="middle" font-size="12px"><text x="298" y="122" fill="#000000" font-family="Helvetica">transcoding</text><text x="298" y="136" fill="#000000" font-family="Helvetica">proxy</text></g></g></svg>