<svg xmlns="http://www.w3.org/2000/svg" style="background-color: rgb(255, 255, 255);" width="500px" height="170px" xmlns:xlink="http://www.w3.org/1999/xlink" version="1.1"><defs/><g transform="translate(0.5,0.5)"><rect x="2" y="3" width="496" height="165" fill="none" stroke="none" pointer-events="none"/><path d="M 444 112 L 344 112" fill="none" stroke="#000000" stroke-miterlimit="10" pointer-events="none"/><path d="M 339 112 L 346 109 L 344 112 L 346 116 Z" fill="#000000" stroke="#000000" stroke-miterlimit="10" pointer-events="none"/><path d="M 308 128 L 154 128" fill="none" stroke="#000000" stroke-miterlimit="10" pointer-events="none"/><path d="M 149 128 L 156 125 L 154 128 L 156 132 Z" fill="#000000" stroke="#000000" stroke-miterlimit="10" pointer-events="none"/><path d="M 108 103 L 252 103" fill="none" stroke="#000000" stroke-miterlimit="10" pointer-events="none"/><path d="M 257 103 L 250 106 L 252 103 L 250 99 Z" fill="#000000" stroke="#000000" stroke-miterlimit="10" pointer-events="none"/><path d="M 59 58 C 34 51 20 70 22 87 C 22 87 22 87 22 87 C 2 93 7 127 17 127 C 18 127 18 127 18 127 C 15 143 39 160 52 151 C 53 150 53 150 53 150 C 57 165 74 167 90 167 C 105 168 113 167 119 158 C 120 158 120 158 120 158 C 143 160 153 137 148 121 C 149 121 149 121 149 121 C 157 118 158 92 145 88 C 145 87 145 87 145 87 C 151 70 137 54 118 57 C 117 56 117 56 117 56 C 103 38 65 41 60 59 Z" fill="#6dbaff" stroke="#ffffff" stroke-width="2" stroke-miterlimit="10" pointer-events="none"/><g text-anchor="middle" font-size="12px"><text x="80" y="107" fill="#FFFFFF" font-family="Helvetica">World wide web</text></g><rect x="258" y="88" width="80" height="58" fill="#6dbaff" stroke="#b8b8b8" stroke-dasharray="3 3" pointer-events="none"/><rect x="258" y="18" width="80" height="57" rx="8" ry="8" fill="#c2c2c2" stroke="#787878" stroke-dasharray="3 3" pointer-events="none"/><rect x="408" y="26" width="90" height="120" fill="#ffffff" stroke="#000000" stroke-dasharray="3 3" pointer-events="none"/><rect x="423" y="32" width="30" height="20" fill="none" stroke="none" pointer-events="none"/><g font-size="12px"><text x="425" y="45" fill="#000000" font-family="Helvetica">application</text></g><rect x="418" y="78" width="70" height="54" rx="8" ry="8" fill="#c7d6ff" stroke="#b8b8b8" stroke-dasharray="3 3" pointer-events="none"/><rect x="433" y="95" width="30" height="20" fill="none" stroke="none" pointer-events="none"/><g font-size="12px"><text x="435" y="108" fill="#000000" font-family="Helvetica">content</text></g><rect x="183" y="26" width="30" height="20" fill="none" stroke="none" pointer-events="none"/><g text-anchor="middle" font-size="12px"><text x="198" y="39" fill="#000000" font-family="Helvetica">Delivery</text><text x="198" y="53" fill="#000000" font-family="Helvetica"> context</text></g><rect x="162" y="86" width="30" height="20" fill="none" stroke="none" pointer-events="none"/><g font-size="12px"><text x="164" y="99" fill="#000000" font-family="Helvetica">HTTP Request</text></g><rect x="165" y="128" width="30" height="20" fill="none" stroke="none" pointer-events="none"/><g font-size="12px"><text x="167" y="141" fill="#000000" font-family="Helvetica">HTTP Response</text></g><rect x="283" y="103" width="30" height="20" fill="none" stroke="none" pointer-events="none"/><g text-anchor="middle" font-size="12px"><text x="298" y="116" fill="#000000" font-family="Helvetica">server-side</text><text x="298" y="130" fill="#000000" font-family="Helvetica">adaptation</text></g><rect x="282" y="27" width="30" height="20" fill="none" stroke="none" pointer-events="none"/><g text-anchor="middle" font-size="12px"><text x="297" y="40" fill="#000000" font-family="Helvetica">selection or</text><text x="297" y="54" fill="#000000" font-family="Helvetica">adaptation</text><text x="297" y="68" fill="#000000" font-family="Helvetica">rules</text></g><rect x="431" y="3" width="30" height="15" fill="none" stroke="none" pointer-events="none"/><g font-size="12px"><text x="433" y="16" fill="#000000" font-family="Helvetica" font-weight="bold">server</text></g></g></svg>